<mxfile host="65bd71144e">
    <diagram id="eS_fJ2C-kAe85rcNr2LH" name="Page-1">
        <mxGraphModel dx="1870" dy="1895" grid="0" gridSize="10" guides="1" tooltips="1" connect="1" arrows="1" fold="1" page="1" pageScale="1" pageWidth="850" pageHeight="1100" math="0" shadow="0">
            <root>
                <mxCell id="0"/>
                <mxCell id="1" parent="0"/>
                <mxCell id="55" value="" style="group;labelBackgroundColor=default;fillColor=#dae8fc;strokeColor=#6c8ebf;" vertex="1" connectable="0" parent="1">
                    <mxGeometry x="10" y="-262" width="850" height="322" as="geometry"/>
                </mxCell>
                <mxCell id="53" value="" style="group" vertex="1" connectable="0" parent="55">
                    <mxGeometry y="52" width="850" height="270" as="geometry"/>
                </mxCell>
                <mxCell id="48" value="" style="edgeStyle=none;html=1;" edge="1" parent="53" source="45" target="47">
                    <mxGeometry relative="1" as="geometry"/>
                </mxCell>
                <mxCell id="45" value="raxmlng_pars_tree" style="rounded=0;whiteSpace=wrap;html=1;" vertex="1" parent="53">
                    <mxGeometry x="170" width="120" height="60" as="geometry"/>
                </mxCell>
                <mxCell id="52" style="edgeStyle=none;html=1;" edge="1" parent="53" source="46" target="50">
                    <mxGeometry relative="1" as="geometry"/>
                </mxCell>
                <mxCell id="46" value="raxmlng_rand_tree" style="rounded=0;whiteSpace=wrap;html=1;" vertex="1" parent="53">
                    <mxGeometry x="495" width="120" height="60" as="geometry"/>
                </mxCell>
                <mxCell id="47" value="raxml_best_tree(.bestTree)&lt;div&gt;raxml_starting_tree(.startTree)&lt;/div&gt;&lt;div&gt;raxml_best_model(.bestModel)&lt;/div&gt;&lt;div&gt;raxml_log(.inference.log)&lt;/div&gt;" style="rounded=1;whiteSpace=wrap;html=1;fillColor=#d5e8d4;strokeColor=#82b366;" vertex="1" parent="53">
                    <mxGeometry x="100" y="110" width="260" height="60" as="geometry"/>
                </mxCell>
                <mxCell id="49" value="raxmlng_tree_inference_prefix_pars" style="text;whiteSpace=wrap;fontStyle=1" vertex="1" parent="53">
                    <mxGeometry y="70" width="230" height="40" as="geometry"/>
                </mxCell>
                <mxCell id="50" value="raxml_best_tree(.bestTree)&lt;div&gt;raxml_best_model(.bestModel)&lt;/div&gt;&lt;div&gt;raxml_log(.inference.log)&lt;/div&gt;" style="rounded=1;whiteSpace=wrap;html=1;fillColor=#d5e8d4;strokeColor=#82b366;" vertex="1" parent="53">
                    <mxGeometry x="425" y="110" width="260" height="60" as="geometry"/>
                </mxCell>
                <mxCell id="51" value="raxmlng_tree_inference_prefix_rand" style="text;html=1;align=center;verticalAlign=middle;resizable=0;points=[];autosize=1;strokeColor=none;fillColor=none;fontStyle=1" vertex="1" parent="53">
                    <mxGeometry x="630" y="70" width="220" height="30" as="geometry"/>
                </mxCell>
                <mxCell id="54" value="&lt;span class=&quot;PRIVATE_TreeView-item-content-text prc-TreeView-TreeViewItemContentText-smZM-&quot;&gt;raxmlng_tree_inference.smk&lt;/span&gt;" style="text;html=1;align=center;verticalAlign=middle;resizable=0;points=[];autosize=1;strokeColor=none;fillColor=none;fontStyle=1;fontColor=light-dark(#6600CC,#EDEDED);labelBackgroundColor=#CCCCFF;" vertex="1" parent="55">
                    <mxGeometry x="300" width="170" height="30" as="geometry"/>
                </mxCell>
                <mxCell id="58" value="" style="group;fillColor=#dae8fc;strokeColor=#6c8ebf;" vertex="1" connectable="0" parent="1">
                    <mxGeometry x="-407" y="514" width="1770" height="592" as="geometry"/>
                </mxCell>
                <mxCell id="57" value="&lt;span class=&quot;PRIVATE_TreeView-item-content-text prc-TreeView-TreeViewItemContentText-smZM-&quot;&gt;&lt;font style=&quot;&quot;&gt;collect_data.smk&lt;/font&gt;&lt;/span&gt;" style="text;html=1;align=center;verticalAlign=middle;resizable=0;points=[];autosize=1;strokeColor=none;fillColor=none;labelBackgroundColor=#CCCCFF;fontColor=#000000;" vertex="1" parent="58">
                    <mxGeometry x="905" width="110" height="30" as="geometry"/>
                </mxCell>
                <mxCell id="70" value="" style="group" vertex="1" connectable="0" parent="58">
                    <mxGeometry y="62" width="1770" height="530" as="geometry"/>
                </mxCell>
                <mxCell id="15" value="" style="group;fillColor=#e1d5e7;strokeColor=#9673a6;" vertex="1" connectable="0" parent="70">
                    <mxGeometry y="10" width="540" height="310" as="geometry"/>
                </mxCell>
                <mxCell id="6" value="" style="edgeStyle=none;html=1;" edge="1" parent="15" source="2" target="4">
                    <mxGeometry relative="1" as="geometry"/>
                </mxCell>
                <mxCell id="2" value="c&lt;span style=&quot;color: rgb(63, 63, 63); background-color: transparent;&quot;&gt;ollect_search_trees&lt;/span&gt;&lt;div&gt;&lt;span style=&quot;color: rgb(63, 63, 63); background-color: transparent;&quot;&gt;(shell cat)&lt;/span&gt;&lt;/div&gt;" style="rounded=0;whiteSpace=wrap;html=1;" vertex="1" parent="15">
                    <mxGeometry x="70" y="160" width="120" height="60" as="geometry"/>
                </mxCell>
                <mxCell id="5" value="" style="edgeStyle=none;html=1;" edge="1" parent="15" source="3" target="2">
                    <mxGeometry relative="1" as="geometry"/>
                </mxCell>
                <mxCell id="3" value="raxmlng_pars_search_trees (.bestTree)&lt;div&gt;raxmlng_rand_search_trees(.bestTree)&lt;/div&gt;" style="rounded=1;whiteSpace=wrap;html=1;fillColor=#fff2cc;strokeColor=#d6b656;" vertex="1" parent="15">
                    <mxGeometry y="60" width="260" height="60" as="geometry"/>
                </mxCell>
                <mxCell id="4" value="all_search_trees(AllSearchTrees.trees)" style="rounded=1;whiteSpace=wrap;html=1;fillColor=#d5e8d4;strokeColor=#82b366;" vertex="1" parent="15">
                    <mxGeometry x="20" y="250" width="220" height="60" as="geometry"/>
                </mxCell>
                <mxCell id="7" value="" style="edgeStyle=none;html=1;" edge="1" parent="15" source="8" target="11">
                    <mxGeometry relative="1" as="geometry"/>
                </mxCell>
                <mxCell id="8" value="collect_search_logs&lt;div&gt;(shell cat)&lt;/div&gt;" style="rounded=0;whiteSpace=wrap;html=1;" vertex="1" parent="15">
                    <mxGeometry x="350" y="160" width="120" height="60" as="geometry"/>
                </mxCell>
                <mxCell id="9" value="" style="edgeStyle=none;html=1;" edge="1" parent="15" source="10" target="8">
                    <mxGeometry relative="1" as="geometry"/>
                </mxCell>
                <mxCell id="10" value="raxmlng_pars_search_trees (.inference.log)&lt;div&gt;raxmlng_rand_search_trees(.inference.log)&lt;/div&gt;" style="rounded=1;whiteSpace=wrap;html=1;fillColor=#fff2cc;strokeColor=#d6b656;" vertex="1" parent="15">
                    <mxGeometry x="280" y="60" width="260" height="60" as="geometry"/>
                </mxCell>
                <mxCell id="11" value="&lt;div class=&quot;Box-sc-g0xbh4-0 code-navigation-cursor&quot; data-testid=&quot;navigation-cursor&quot; style=&quot;top: 420px; left: 207px;&quot; aria-hidden=&quot;true&quot;&gt;&lt;/div&gt;&amp;nbsp;all_search_logs(AllSearchLogs.log)" style="rounded=1;whiteSpace=wrap;html=1;fillColor=#d5e8d4;strokeColor=#82b366;" vertex="1" parent="15">
                    <mxGeometry x="300" y="250" width="220" height="60" as="geometry"/>
                </mxCell>
                <mxCell id="14" value="&lt;b&gt;raxmlng_tree_inference_prefix_pars&lt;/b&gt;&lt;div&gt;&lt;b&gt;raxmlng_tree_inference_prefix_rand&lt;/b&gt;&lt;/div&gt;" style="text;html=1;align=center;verticalAlign=middle;resizable=0;points=[];autosize=1;strokeColor=none;fillColor=none;" vertex="1" parent="15">
                    <mxGeometry x="140" width="230" height="40" as="geometry"/>
                </mxCell>
                <mxCell id="43" value="" style="group;fillColor=#e1d5e7;strokeColor=#9673a6;" vertex="1" connectable="0" parent="70">
                    <mxGeometry x="1240" y="70" width="530" height="260" as="geometry"/>
                </mxCell>
                <mxCell id="42" style="edgeStyle=none;html=1;" edge="1" parent="43" source="35" target="39">
                    <mxGeometry relative="1" as="geometry"/>
                </mxCell>
                <mxCell id="35" value="collect_plausible_trees&lt;div&gt;(collect_plausible_trees.py)&lt;/div&gt;" style="rounded=0;whiteSpace=wrap;html=1;" vertex="1" parent="43">
                    <mxGeometry x="167.5" y="90" width="160" height="60" as="geometry"/>
                </mxCell>
                <mxCell id="41" style="edgeStyle=none;html=1;" edge="1" parent="43" source="36" target="35">
                    <mxGeometry relative="1" as="geometry"/>
                </mxCell>
                <mxCell id="36" value="iqtree_results(significance.iqtree)&lt;div&gt;clusters(filteredEvalTrees.clusters.pkl)&lt;/div&gt;&lt;div&gt;&lt;b&gt;eval_trees(AllEvalTrees.trees)&lt;/b&gt;&lt;/div&gt;" style="rounded=1;whiteSpace=wrap;html=1;fillColor=#fff2cc;strokeColor=#d6b656;" vertex="1" parent="43">
                    <mxGeometry x="130" width="235" height="60" as="geometry"/>
                </mxCell>
                <mxCell id="37" value="output_files_iqtree_dir" style="text;whiteSpace=wrap;" vertex="1" parent="43">
                    <mxGeometry width="150" height="40" as="geometry"/>
                </mxCell>
                <mxCell id="38" value="raxmlng_tree_eval_dir" style="text;html=1;align=center;verticalAlign=middle;resizable=0;points=[];autosize=1;strokeColor=none;fillColor=none;fontStyle=1" vertex="1" parent="43">
                    <mxGeometry x="370" y="30" width="140" height="30" as="geometry"/>
                </mxCell>
                <mxCell id="39" value="all_plausible_trees(AllPlausibleTrees.trees)" style="rounded=1;whiteSpace=wrap;html=1;fillColor=#d5e8d4;strokeColor=#82b366;" vertex="1" parent="43">
                    <mxGeometry x="122.5" y="200" width="250" height="60" as="geometry"/>
                </mxCell>
                <mxCell id="40" value="raxmlng_tree_eval_dir" style="text;whiteSpace=wrap;fontStyle=1" vertex="1" parent="43">
                    <mxGeometry x="380" y="210" width="150" height="40" as="geometry"/>
                </mxCell>
                <mxCell id="44" value="" style="group;fillColor=#e1d5e7;strokeColor=#9673a6;" vertex="1" connectable="0" parent="70">
                    <mxGeometry x="680" width="540" height="530" as="geometry"/>
                </mxCell>
                <mxCell id="16" value="" style="group" vertex="1" connectable="0" parent="44">
                    <mxGeometry width="540" height="310" as="geometry"/>
                </mxCell>
                <mxCell id="17" value="" style="edgeStyle=none;html=1;" edge="1" parent="16" source="18" target="21">
                    <mxGeometry relative="1" as="geometry"/>
                </mxCell>
                <mxCell id="18" value="collect_eval_trees&lt;div&gt;(shell cat)&lt;/div&gt;" style="rounded=0;whiteSpace=wrap;html=1;" vertex="1" parent="16">
                    <mxGeometry x="70" y="160" width="120" height="60" as="geometry"/>
                </mxCell>
                <mxCell id="19" value="" style="edgeStyle=none;html=1;" edge="1" parent="16" source="20" target="18">
                    <mxGeometry relative="1" as="geometry"/>
                </mxCell>
                <mxCell id="20" value="raxmlng_pars_eval_trees (.bestTree)&lt;div&gt;raxmlng_rand_eval_trees(.bestTree)&lt;/div&gt;" style="rounded=1;whiteSpace=wrap;html=1;fillColor=#fff2cc;strokeColor=#d6b656;" vertex="1" parent="16">
                    <mxGeometry y="60" width="260" height="60" as="geometry"/>
                </mxCell>
                <mxCell id="21" value="all_eval_trees(AllEvalTrees.trees)" style="rounded=1;whiteSpace=wrap;html=1;fillColor=#d5e8d4;strokeColor=#82b366;" vertex="1" parent="16">
                    <mxGeometry x="20" y="250" width="220" height="60" as="geometry"/>
                </mxCell>
                <mxCell id="22" value="" style="edgeStyle=none;html=1;" edge="1" parent="16" source="23" target="26">
                    <mxGeometry relative="1" as="geometry"/>
                </mxCell>
                <mxCell id="23" value="collect_eval_logs&lt;div&gt;(shell cat)&lt;/div&gt;" style="rounded=0;whiteSpace=wrap;html=1;" vertex="1" parent="16">
                    <mxGeometry x="350" y="160" width="120" height="60" as="geometry"/>
                </mxCell>
                <mxCell id="24" value="" style="edgeStyle=none;html=1;" edge="1" parent="16" source="25" target="23">
                    <mxGeometry relative="1" as="geometry"/>
                </mxCell>
                <mxCell id="25" value="raxmlng_pars_eval_logs (.eval.log)&lt;div&gt;raxmlng_rand_eval_logs(.eval.log)&lt;/div&gt;" style="rounded=1;whiteSpace=wrap;html=1;fillColor=#fff2cc;strokeColor=#d6b656;" vertex="1" parent="16">
                    <mxGeometry x="280" y="60" width="260" height="60" as="geometry"/>
                </mxCell>
                <mxCell id="26" value="&lt;div class=&quot;Box-sc-g0xbh4-0 code-navigation-cursor&quot; data-testid=&quot;navigation-cursor&quot; style=&quot;top: 420px; left: 207px;&quot; aria-hidden=&quot;true&quot;&gt;&lt;/div&gt;&amp;nbsp;all_eval_logs(AllEvalLogs.log)" style="rounded=1;whiteSpace=wrap;html=1;fillColor=#d5e8d4;strokeColor=#82b366;" vertex="1" parent="16">
                    <mxGeometry x="300" y="250" width="220" height="60" as="geometry"/>
                </mxCell>
                <mxCell id="27" value="&lt;b&gt;raxmlng_tree_eval_prefix_pars&lt;/b&gt;&lt;br&gt;&lt;div&gt;&lt;b&gt;raxmlng_tree_eval_prefix_rand&lt;/b&gt;&lt;/div&gt;" style="text;html=1;align=center;verticalAlign=middle;resizable=0;points=[];autosize=1;strokeColor=none;fillColor=none;" vertex="1" parent="16">
                    <mxGeometry x="155" width="200" height="40" as="geometry"/>
                </mxCell>
                <mxCell id="32" style="edgeStyle=none;html=1;" edge="1" parent="44" source="28" target="31">
                    <mxGeometry relative="1" as="geometry"/>
                </mxCell>
                <mxCell id="28" value="save_best_eval_tree&lt;div&gt;(save_best_eval_tree.py)&lt;/div&gt;" style="rounded=0;whiteSpace=wrap;html=1;" vertex="1" parent="44">
                    <mxGeometry x="170" y="360" width="200" height="60" as="geometry"/>
                </mxCell>
                <mxCell id="29" style="edgeStyle=none;html=1;" edge="1" parent="44" source="21" target="28">
                    <mxGeometry relative="1" as="geometry"/>
                </mxCell>
                <mxCell id="30" style="edgeStyle=none;html=1;" edge="1" parent="44" source="26" target="28">
                    <mxGeometry relative="1" as="geometry"/>
                </mxCell>
                <mxCell id="31" value="best_eval_tree(BestEvalTree.tree)" style="rounded=1;whiteSpace=wrap;html=1;fillColor=#d5e8d4;strokeColor=#82b366;" vertex="1" parent="44">
                    <mxGeometry x="170" y="470" width="200" height="60" as="geometry"/>
                </mxCell>
                <mxCell id="33" value="raxmlng_tree_eval_dir" style="text;html=1;align=center;verticalAlign=middle;resizable=0;points=[];autosize=1;strokeColor=none;fillColor=none;" vertex="1" parent="44">
                    <mxGeometry x="270" y="440" width="140" height="30" as="geometry"/>
                </mxCell>
                <mxCell id="62" value="" style="edgeStyle=none;html=1;" edge="1" parent="1" source="47">
                    <mxGeometry relative="1" as="geometry">
                        <mxPoint x="34" y="103" as="targetPoint"/>
                    </mxGeometry>
                </mxCell>
                <mxCell id="76" value="" style="group;fillColor=#e1d5e7;strokeColor=#9673a6;" vertex="1" connectable="0" parent="1">
                    <mxGeometry x="-242" y="101" width="330" height="326" as="geometry"/>
                </mxCell>
                <mxCell id="59" value="reevaluate_raxml_pars_tree" style="rounded=0;whiteSpace=wrap;html=1;" vertex="1" parent="76">
                    <mxGeometry x="130" y="126" width="190" height="60" as="geometry"/>
                </mxCell>
                <mxCell id="61" value="best_tree_of_run(.bestTree)" style="rounded=1;whiteSpace=wrap;html=1;fillColor=#fff2cc;strokeColor=#d6b656;" vertex="1" parent="76">
                    <mxGeometry x="115" y="26" width="215" height="60" as="geometry"/>
                </mxCell>
                <mxCell id="72" style="edgeStyle=none;html=1;" edge="1" parent="76" source="64" target="66">
                    <mxGeometry relative="1" as="geometry"/>
                </mxCell>
                <mxCell id="64" value="log(.log)&lt;div&gt;best_tree(.bestTree)&lt;/div&gt;&lt;div&gt;eval_log(.eval.log)&lt;/div&gt;" style="rounded=1;whiteSpace=wrap;html=1;fillColor=#d5e8d4;strokeColor=#82b366;" vertex="1" parent="76">
                    <mxGeometry x="130" y="266" width="190" height="60" as="geometry"/>
                </mxCell>
                <mxCell id="66" value="raxmlng_tree_eval_prefix_pars" style="text;html=1;align=center;verticalAlign=middle;resizable=0;points=[];autosize=1;strokeColor=none;fillColor=none;fontStyle=1" vertex="1" parent="76">
                    <mxGeometry x="20" y="236" width="190" height="30" as="geometry"/>
                </mxCell>
                <mxCell id="63" style="edgeStyle=none;html=1;" edge="1" parent="76" source="61" target="59">
                    <mxGeometry relative="1" as="geometry"/>
                </mxCell>
                <mxCell id="65" value="" style="edgeStyle=none;html=1;" edge="1" parent="76" source="59" target="64">
                    <mxGeometry relative="1" as="geometry"/>
                </mxCell>
                <mxCell id="75" value="raxmlng_tree_inference_prefix_pars" style="text;html=1;align=center;verticalAlign=middle;resizable=0;points=[];autosize=1;strokeColor=none;fillColor=none;fontStyle=1" vertex="1" parent="76">
                    <mxGeometry width="210" height="26" as="geometry"/>
                </mxCell>
                <mxCell id="84" value="" style="group;fillColor=#e1d5e7;strokeColor=#9673a6;" vertex="1" connectable="0" parent="1">
                    <mxGeometry x="244" y="118" width="444.5" height="297" as="geometry"/>
                </mxCell>
                <mxCell id="83" style="edgeStyle=none;html=1;" edge="1" parent="84" source="74" target="82">
                    <mxGeometry relative="1" as="geometry"/>
                </mxCell>
                <mxCell id="74" value="reevaluate_raxml_rand_tree" style="rounded=0;whiteSpace=wrap;html=1;" vertex="1" parent="84">
                    <mxGeometry x="19.5" y="123" width="183" height="60" as="geometry"/>
                </mxCell>
                <mxCell id="77" value="raxmlng_tree_inference_prefix_rand" style="text;whiteSpace=wrap;fontStyle=1" vertex="1" parent="84">
                    <mxGeometry x="223.5" width="221" height="36" as="geometry"/>
                </mxCell>
                <mxCell id="80" style="edgeStyle=none;html=1;" edge="1" parent="84" source="79" target="74">
                    <mxGeometry relative="1" as="geometry"/>
                </mxCell>
                <mxCell id="79" value="best_tree_of_run(.bestTree)" style="rounded=1;whiteSpace=wrap;html=1;fillColor=#fff2cc;strokeColor=#d6b656;" vertex="1" parent="84">
                    <mxGeometry y="15" width="215" height="60" as="geometry"/>
                </mxCell>
                <mxCell id="81" value="raxmlng_tree_eval_prefix_rand" style="text;whiteSpace=wrap;fontStyle=1" vertex="1" parent="84">
                    <mxGeometry x="241.5" y="181" width="193" height="36" as="geometry"/>
                </mxCell>
                <mxCell id="82" value="log(.log)&lt;div&gt;best_tree(.bestTree)&lt;/div&gt;&lt;div&gt;eval_log(.eval.log)&lt;/div&gt;" style="rounded=1;whiteSpace=wrap;html=1;fillColor=#d5e8d4;strokeColor=#82b366;" vertex="1" parent="84">
                    <mxGeometry x="19.5" y="237" width="190" height="60" as="geometry"/>
                </mxCell>
                <mxCell id="85" style="edgeStyle=none;html=1;" edge="1" parent="1" source="50">
                    <mxGeometry relative="1" as="geometry">
                        <mxPoint x="385" y="124" as="targetPoint"/>
                    </mxGeometry>
                </mxCell>
            </root>
        </mxGraphModel>
    </diagram>
</mxfile>